<?xml version="1.0" encoding="UTF-8" standalone="no"?>
<!-- Created with Inkscape (http://www.inkscape.org/) -->

<svg
   xmlns:dc="http://purl.org/dc/elements/1.1/"
   xmlns:cc="http://creativecommons.org/ns#"
   xmlns:rdf="http://www.w3.org/1999/02/22-rdf-syntax-ns#"
   xmlns:svg="http://www.w3.org/2000/svg"
   xmlns="http://www.w3.org/2000/svg"
   xmlns:sodipodi="http://sodipodi.sourceforge.net/DTD/sodipodi-0.dtd"
   xmlns:inkscape="http://www.inkscape.org/namespaces/inkscape"
   id="svg11824"
   sodipodi:docname="Machovka-speaker.svg"
   viewBox="0 0 120.6383 257.06339"
   sodipodi:version="0.32"
   version="1.0"
   inkscape:version="0.91 r13725"
   width="120.6383"
   height="257.06339">
  <defs
     id="defs15" />
  <sodipodi:namedview
     id="base"
     bordercolor="#666666"
     inkscape:pageshadow="2"
     guidetolerance="10.0"
     pagecolor="#ffffff"
     gridtolerance="10.0"
     inkscape:zoom="2.3710692"
     objecttolerance="10.0"
     borderopacity="1.0"
     inkscape:current-layer="svg11824"
     inkscape:cx="209.59607"
     inkscape:cy="120.79219"
     inkscape:window-y="0"
     inkscape:window-x="0"
     inkscape:window-height="1000"
     inkscape:pageopacity="0.0"
     inkscape:window-width="1680"
     showgrid="false"
     inkscape:snap-bbox="false"
     inkscape:bbox-nodes="false"
     inkscape:object-paths="true"
     inkscape:object-nodes="true"
     inkscape:snap-global="false"
     fit-margin-top="0"
     fit-margin-left="0"
     fit-margin-right="0"
     fit-margin-bottom="0"
     inkscape:window-maximized="1" />
  <path
     style="fill:#000000;fill-rule:evenodd;stroke:#000000;stroke-width:0.77915257px"
     d="M 56.504776,0.40024326 C 38.429384,0.47137876 20.927169,3.5854797 8.6590734,6.6893058 L 6.541886,7.4529777 5.901261,22.095555 c -0.018374,0.420485 -5.54111898,8.565126 -5.50976566,8.90625 0.36112797,3.929072 2.41090106,40.583991 3.60546876,60.744141 0.3543385,2.216645 1.7988281,3.577647 1.7988281,6.490235 0,45.598429 -2.0544182,94.151779 -4.87109373,149.099609 2.00487063,1.20403 4.05282353,2.33328 6.03515623,3.57031 4.0805933,2.54641 13.5991343,3.87128 22.1601563,3.30469 9.171306,-0.60698 18.233842,-3.15912 27.982422,-4.70508 7.379143,-1.17021 16.723626,-1.00652 25.232422,-0.89649 9.44153,0.1221 19.540105,3.62084 29.474615,6.24219 1.06958,0.28222 4.09935,2.09108 5.9375,1.78516 1.13199,-0.1884 1.75853,-0.6576 2.11914,-2.80078 1.6515,-9.81521 -2.59201,-24.49523 -3.39258,-36.80469 -7.90721,5.28809 -15.79782,7.36871 -26.183597,8.2832 -0.126327,-0.76516 -0.239964,-1.63787 -0.355469,-2.5 0.138311,0.58934 0.26923,1.22817 0.412109,1.78321 0,0 6.299295,-0.35938 6.896485,-0.35938 0.597189,0 5.843752,-1.44336 5.843752,-1.44336 l 8.09766,-3.24414 5.24609,-3.23633 C 112.79395,156.81761 106.68723,94.159091 104.7372,12.292821 c 0,-0.981645 -0.75846,-2.141644 -2.24805,-2.8808587 C 88.848937,2.6429443 72.453652,0.33747656 56.504776,0.40024326 Z M 71.387589,157.70102 c 0.02643,1.4e-4 0.0518,0.005 0.07813,0.006 -13.587526,1.33902 -16.394639,48.35557 -18.173828,67.60742 l -0.115235,-0.0273 c 1.038719,-20.21816 5.625949,-67.65422 18.210938,-67.58594 z m 0.458984,0.0313 c 1.844958,0.20722 3.436479,1.61956 4.837891,3.89258 -1.422906,-1.69125 -3.02105,-3.02875 -4.837891,-3.89258 z m -55.345703,58.59961 3.148438,0.83203 -3.148438,-0.76367 c 3.15e-4,-0.023 -3.15e-4,-0.0454 0,-0.0684 z"
     id="path11835"
     inkscape:connector-curvature="0" />
  <path
     inkscape:connector-curvature="0"
     d="m 8.659917,6.6887344 c 23.092885,-5.84249614 64.730737,-11.7167692 93.829863,2.7238019 1.48959,0.7392147 2.24657,1.8994477 2.24657,2.8810927 1.95003,81.86627 8.05835,144.523751 11.69496,204.020441 l -5.24673,3.23632 -8.09761,3.24486 c 0,0 -5.24674,1.44311 -5.843929,1.44311 -0.59719,0 -6.896118,0.35864 -6.896118,0.35864 C 84.980659,203.75082 83.009487,157.76475 71.387269,157.70169 58.762205,157.63319 54.18415,205.3858 53.164761,225.4936 l -6.291819,-1.07592 -14.69513,-3.6035 -8.246904,-2.51904 -7.493308,-1.98107 C 17.49306,132.9508 7.2069815,36.585878 8.659917,6.6887344 Z"
     style="fill:#9a959c;fill-rule:evenodd;stroke:#000000;stroke-width:0.77915257px"
     sodipodi:nodetypes="csccccscscccccc"
     id="path11833" />
  <ellipse
     ry="3.5015118"
     rx="2.8622496"
     cy="170.7505"
     cx="71.841644"
     style="fill:#1c813d;stroke-width:0"
     id="path11839" />
  <ellipse
     ry="5.0294437"
     rx="4.717411"
     cy="189.46768"
     cx="73.06073"
     style="fill:#d4d3d8;stroke-width:0"
     id="path13634" />
  <ellipse
     ry="6.8118787"
     rx="6.5727692"
     cy="216.20091"
     cx="73.864151"
     style="fill:#d4d3d8;stroke-width:0"
     id="path13636" />
  <ellipse
     ry="3.1831853"
     rx="2.8092656"
     cy="202.00938"
     cx="72.954681"
     style="fill:#d4d3d8;stroke-width:0"
     id="path13638" />
  <ellipse
     ry="4.4564896"
     rx="3.9753623"
     cy="234.2243"
     cx="79.846008"
     style="fill:#333333;stroke-width:0"
     id="path13640" />
  <ellipse
     ry="2.0372264"
     rx="2.0671697"
     cy="234.34785"
     cx="79.738297"
     style="fill:#1a1a1a;stroke-width:0"
     id="path13642" />
  <metadata
     id="metadata13">
    <rdf:RDF>
      <cc:Work>
        <dc:format>image/svg+xml</dc:format>
        <dc:type
           rdf:resource="http://purl.org/dc/dcmitype/StillImage" />
        <cc:license
           rdf:resource="http://creativecommons.org/publicdomain/zero/1.0/" />
        <dc:publisher>
          <cc:Agent
             rdf:about="http://openclipart.org/">
            <dc:title>Openclipart</dc:title>
          </cc:Agent>
        </dc:publisher>
        <dc:title>speaker</dc:title>
        <dc:date>2006-12-27T13:38:00</dc:date>
        <dc:description />
        <dc:source>https://openclipart.org/detail/2333/speaker-by-machovka</dc:source>
        <dc:creator>
          <cc:Agent>
            <dc:title>Machovka</dc:title>
          </cc:Agent>
        </dc:creator>
        <dc:subject>
          <rdf:Bag>
            <rdf:li>computer</rdf:li>
            <rdf:li>music</rdf:li>
            <rdf:li>school</rdf:li>
            <rdf:li>sound</rdf:li>
            <rdf:li>speaker</rdf:li>
            <rdf:li>technology</rdf:li>
          </rdf:Bag>
        </dc:subject>
      </cc:Work>
      <cc:License
         rdf:about="http://creativecommons.org/publicdomain/zero/1.0/">
        <cc:permits
           rdf:resource="http://creativecommons.org/ns#Reproduction" />
        <cc:permits
           rdf:resource="http://creativecommons.org/ns#Distribution" />
        <cc:permits
           rdf:resource="http://creativecommons.org/ns#DerivativeWorks" />
      </cc:License>
    </rdf:RDF>
  </metadata>
</svg>
