<?xml version="1.0" encoding="utf-8"?>
<svg xmlns="http://www.w3.org/2000/svg" xmlns:xlink="http://www.w3.org/1999/xlink" version= "1.1" width="1539px" height="1099px" viewBox="-230 511 1539 1099">
<g id="layer1">
<g style="fill:rgb(0,174,199); fill-opacity:1.0; stroke-linejoin: miter">
<path d="M-236.36842,503.62372C-236.55894,503.62372,-236.74168,503.6994,-236.8764,503.8341C-237.01114,503.9688,-237.0868,504.1516,-237.0868,504.34204L-237.08572,1612.4369C-237.08572,1612.8337,-236.7641,1613.1553,-236.36732,1613.1553L1315.3682,1613.1559C1315.5586,1613.1559,1315.7412,1613.0801,1315.876,1612.9454C1316.0107,1612.8107,1316.0864,1612.628,1316.0864,1612.4374L1316.0854,504.34344C1316.0854,503.94672,1315.7637,503.62506,1315.3667,503.62506L-236.36842,503.62372 Z"/>
</g>
<g style="fill:rgb(0,174,199); fill-opacity:1.0; stroke-linejoin: miter">
<path d="M-236.36842,503.62372C-236.55894,503.62372,-236.74168,503.6994,-236.8764,503.83405C-237.01114,503.9688,-237.0868,504.15155,-237.0868,504.34204L-237.08572,1612.4368C-237.08572,1612.8337,-236.7641,1613.1553,-236.36732,1613.1553L1315.3682,1613.1558C1315.5583,1613.1558,1315.7412,1613.08,1315.8757,1612.9453C1316.0107,1612.8105,1316.0864,1612.6279,1316.0864,1612.4373L1316.085,504.34338C1316.085,503.94666,1315.7634,503.62506,1315.3667,503.62506L-236.36842,503.62372 Z"/>
</g>
<g style="fill:rgb(83,93,102); fill-opacity:1.0; stroke-linejoin: miter">
<path d="M1034.0172,503.62476C1008.87714,636.6277,983.1318,766.402,935.03326,843.1309C885.7044,921.82245,812.6228,944.8175,737.6712,968.1594L737.33057,968.2655C735.3806,968.87305,733.9715,970.68604,733.9715,972.8281C733.9715,974.349,734.69415,975.7781,735.9182,976.67896C736.7493,977.29065,737.74445,977.60913,738.7517,977.60913C739.22784,977.60913,739.70654,977.53796,740.1721,977.39307L740.51324,977.28687C815.21313,954.0233,891.70905,930.24225,943.13306,848.2084C992.5933,769.3072,1018.6269,636.6162,1043.7465,503.62488L1034.0282,503.62476 Z"/>
</g>
<g style="fill:rgb(83,93,102); fill-opacity:1.0; stroke-linejoin: miter">
<path d="M923.9901,503.6247L914.4067,503.62585L914.397,503.62695C925.3502,618.03076,935.9435,730.3192,907.17554,798.3461C878.76044,865.5385,811.42004,890.01276,741.3207,915.20404C738.8364,916.09686,737.5463,918.83453,738.439,921.3188C739.1399,923.2691,740.9778,924.48346,742.9375,924.48346C743.474,924.48346,744.0197,924.3924,744.5537,924.2005C813.7277,899.3416,885.66034,873.7663,915.9802,802.0695C945.84375,731.45215,934.81396,616.5652,924.0001,503.6247 Z"/>
</g>
<g style="fill:rgb(255,184,155); fill-opacity:1.0; stroke-linejoin: miter">
<path d="M172.37514,1548.3317Q177.89339,1552.9801,185.87277,1550.8774Q187.84366,1550.3174,190.76617,1548.5403Q204.8692,1538.2886,209.47452,1536.4276Q216.40173,1532.9938,226.00146,1531.4044Q248.68591,1527.984,271.8464,1531.4355Q281.0839,1533.1282,281.7292,1537.5591Q249.49332,1559.886,251.4017,1564.5615Q251.4219,1568.1956,257.90482,1569.1925Q264.3046,1570.0648,270.7082,1567.1825Q273.74408,1565.8005,276.7929,1563.3727Q290.12778,1551.277,295.21933,1547.7107L325.1311,1526.4423Q329.12207,1523.5049,335.50073,1516.9685Q336.48358,1516.076,337.73502,1515.2838Q342.2247,1512.0752,363.9183,1509.5239L360.61752,1461.9851Q289.79642,1471.6306,243.03604,1492.92Q213.16681,1506.6396,180.29443,1530.5017Q165.23302,1541.9031,172.20615,1548.1711 Z"/>
</g>
<g style="fill:rgb(15,29,42); fill-opacity:1.0; stroke-linejoin: miter">
<path d="M754.2539,1103.8923L628.0897,1123.776L612.8775,1136.0634L530.00415,1165.2349C519.4204,1186.243,513.576,1203.4471,512.4707,1216.8479L511.3424,1236.5875C515.6356,1276.9232,516.7751,1300.8784,515.80194,1308.6085C512.866,1331.9309,504.53534,1374.1552,489.7657,1435.157L344.6871,1464.1694L354.12485,1546.2258L514.5082,1526.6362C515.7261,1533.5309,514.11163,1562.9174,509.6645,1614.7963L870.7504,1614.7959C865.38495,1539.3953,861.8994,1496.7534,860.32025,1486.8673C859.934,1484.4503,860.77924,1470.1636,862.8276,1444.0118C877.1437,1503.7235,902.8138,1543.6029,939.83765,1563.6488C969.76105,1568.1223,987.96014,1567.9689,994.2995,1563.0132C1003.8245,1555.5674,1007.9401,1535.8727,1006.78265,1504.1031L970.9924,1443.2129C967.2303,1436.0087,960.4786,1420.536,953.3377,1395.9891C942.65356,1359.2611,930.1812,1291.4731,913.29675,1193.3534L777.4936,1130.7653L759.7684,1109.9901 Z"/>
</g>
<g style="fill:rgb(255,255,255); fill-opacity:1.0; stroke-linejoin: miter">
<path d="M747.1864,1096.294L630.80054,1122.5441Q592.48065,1250.8912,576.93787,1347.2576Q561.9353,1444.4305,550.4464,1614.7961L676.0946,1614.797Q689.13354,1408.8953,696.23364,1361.4232Q702.1228,1318.5559,712.33405,1279.3849L724.4772,1237.4167L751.3947,1152.8463Q752.1876,1152.4357,753.3499,1110.3085L750.0602,1097.1442L747.1864,1096.294 Z"/>
</g>
<g style="fill:rgb(0,0,0); fill-opacity:1.0; stroke-linejoin: miter">
<path d="M651.03723,1157.9867L673.62317,1162.1112L689.1102,1189.1478L661.1219,1207.9445Q663.89264,1207.8982,664.0148,1221.5225Q664.28516,1235.2258,662.1684,1270.717Q658.8424,1329.2955,639.3659,1570.9146L607.4408,1602.2897L581.3526,1573.049L581.3519,1572.4537L625.4126,1255.0543L640.81354,1203.6167L634.87854,1173.567L651.00446,1158.0236 Z"/>
</g>
<g style="fill:rgb(255,169,136); fill-opacity:1.0; stroke-linejoin: miter">
<path d="M683.426,1050.9247L685.09735,1051.3217Q697.3607,1054.1915,703.1972,1056.08Q708.1286,1057.6691,714.5386,1060.5612Q716.5859,1059.9866,720.96765,1059.4492Q723.4403,1059.2048,725.7565,1059.281Q732.7246,1059.5059,744.6151,1061.1096Q736.00977,1068.8088,727.9173,1070.8042Q719.02325,1072.8884,706.97437,1070.182Q698.6106,1068.1212,694.10803,1064.5873Q692.08386,1062.9921,690.0564,1060.583Q683.68463,1050.8635,683.426,1050.9247 Z"/>
</g>
<g style="fill:rgb(255,169,136); fill-opacity:1.0; stroke-linejoin: miter">
<path d="M692.1892,1025.2928L692.1892,1025.2937Q701.33105,1033.8876,706.34656,1037.2646Q712.5148,1041.5901,717.969,1042.1906Q720.063,1042.383,722.1317,1042.0231L724.19556,1041.5492Q726.25397,1040.9506,728.29395,1039.9489Q733.39935,1037.5453,742.4498,1030.1216L716.1166,1052.4264L692.1892,1025.2928 Z"/>
</g>
<g style="fill:rgb(255,255,255); fill-opacity:0.99607843; stroke-linejoin: miter">
<path d="M746.7368,989.7224L746.73663,989.7246Q751.92114,988.02454,754.89886,987.657Q756.08795,987.495,757.3001,987.4701L758.5188,987.48706L759.7515,987.5873L761.00055,987.78L762.2657,988.07263L763.5474,988.4562L764.8422,988.9243Q766.1448,989.4352,767.4704,990.08044Q770.77765,991.6588,776.9073,995.5383L746.7368,989.7224 Z"/>
</g>
<g style="fill:rgb(0,0,0); fill-opacity:0.99607843; stroke-linejoin: miter">
<path d="M768.9249,990.78796L768.9736,990.88477Q769.3226,991.4935,769.19025,992.0736Q769.0992,992.5785,768.18274,993.8998L755.1349,991.72595Q754.93677,988.84705,755.5594,988.30676Q755.77386,987.9807,756.26117,987.51465Q757.1653,987.41125,758.08624,987.34863Q760.6258,987.1957,762.53326,987.8252Q763.0726,987.9917,763.6335,988.2103Q763.9041,988.29504,765.3513,988.9542Q767.1099,989.8019,768.9249,990.78796 Z"/>
</g>
<g style="fill:rgb(0,0,0); fill-opacity:0.99607843; stroke-linejoin: miter">
<path d="M729.80927,1054.3113L729.80865,1054.3131L729.8088,1054.3119L729.80927,1054.3113 Z"/>
</g>
<g style="fill:rgb(255,255,255); fill-opacity:0.99607843; stroke-linejoin: miter">
<path d="M702.2272,980.5388L702.22675,980.5404Q698.11554,976.9524,695.5164,975.45325Q694.4843,974.8417,693.3784,974.34607L692.2496,973.88574L691.0749,973.4967L689.8497,973.18823L688.5704,972.963L687.2414,972.8175L685.8656,972.74414Q684.4675,972.70593,682.99536,972.7837Q679.33435,972.94775,672.177,974.1304L702.2272,980.5388 Z"/>
</g>
<g style="fill:rgb(0,0,0); fill-opacity:0.99607843; stroke-linejoin: miter">
<path d="M730.75165,1029.4543L730.75165,1029.4556L730.75165,1029.4545L730.75165,1029.4543 Z"/>
</g>
<g style="fill:rgb(0,0,0); fill-opacity:0.99607843; stroke-linejoin: miter">
<path d="M712.0777,975.6282L713.098,975.75806Q719.77606,976.5608,723.8894,977.60657Q727.5824,978.50085,733.9662,981.2521L732.63544,987.61694Q728.5297,985.7987,726.27155,984.9502Q723.1158,983.79456,721.7914,983.4945Q720.45416,983.1045,717.4009,982.652Q715.2237,982.35034,711.34644,982.10034L712.0777,975.6282 Z"/>
</g>
<g style="fill:rgb(0,0,0); fill-opacity:0.99607843; stroke-linejoin: miter">
<path d="M744.0282,973.98L745.5488,973.6566Q750.1205,972.6262,754.5998,972.1438Q756.08954,972.0033,757.5592,971.9845L759.02216,972.00354Q760.4791,972.0569,761.90796,972.27844L763.3299,972.54663L764.7365,972.8978L766.1308,973.32446Q767.51874,973.7908,768.8862,974.37805Q772.3101,975.81616,778.3156,979.34204L744.0282,973.98 Z"/>
</g>
<g style="fill:rgb(0,0,0); fill-opacity:0.99607843; stroke-linejoin: miter">
<path d="M730.245,1012.296L730.2443,1012.2982L730.2448,1012.29626L730.245,1012.296 Z"/>
</g>
<g style="fill:rgb(255,12,0); fill-opacity:0.105882354; stroke-linejoin: miter">
<path d="M747.38043,1028.934L748.08386,1030.535Q751.28705,1038.0054,754.14795,1043.3516Q755.0991,1044.9999,755.75964,1046.0074L759.1221,1050.2716Q759.5609,1051.0183,759.7817,1051.6227Q760.1903,1053.452,759.7605,1055.7305Q759.3671,1058.1315,757.8058,1063.3807Q758.81537,1057.9708,759.0197,1055.543Q759.2596,1053.2307,758.8468,1051.4807Q758.641,1050.9116,758.2519,1050.227Q755.7553,1047.0101,755.29425,1046.241Q754.8345,1045.4833,754.38776,1044.655L753.41034,1042.8224Q751.61554,1039.2479,747.38043,1028.934 Z"/>
</g>
<g style="fill:rgb(255,12,0); fill-opacity:0.105882354; stroke-linejoin: miter">
<path d="M689.59863,1018.03625L688.50287,1019.3994Q683.46655,1025.7793,679.3129,1030.1979Q677.96545,1031.5417,677.0666,1032.3422L672.7104,1035.5859Q672.0919,1036.1921,671.722,1036.7194Q670.85114,1038.3792,670.67377,1040.6912Q670.428,1043.1112,670.571,1048.5863Q671.00275,1043.1002,671.43713,1040.7013Q671.80756,1038.407,672.6616,1036.8251Q673.008,1036.3287,673.5619,1035.7687Q676.80994,1033.3109,677.45386,1032.6887Q678.0955,1032.0759,678.74274,1031.393L680.1634,1029.8776Q682.82587,1026.8942,689.59863,1018.03625 Z"/>
</g>
<g style="fill:rgb(255,184,155); fill-opacity:1.0; stroke-linejoin: miter">
<path d="M833.8482,1542.6046Q827.92834,1539.7411,827.0488,1533.3634Q826.82074,1526.0845,832.1131,1524.1714Q834.37805,1523.3811,838.1215,1523.6938Q853.04626,1526.3486,854.3984,1526.0668Q858.48804,1526.2119,862.6679,1525.3339Q868.9906,1523.9974,876.72845,1520.6704Q880.7028,1519.296,897.61444,1509.6395Q902.0923,1507.4839,907.2297,1506.1066Q910.94824,1505.1217,915.83185,1504.3138Q942.76984,1500.6182,945.71515,1499.6266Q956.2984,1497.2114,965.99884,1492.8771L975.56036,1495.1161Q984.1369,1500.6456,986.1899,1505.7355Q988.41876,1511.0074,986.40875,1520.787Q981.51154,1543.3391,964.6485,1548.2458Q960.6254,1549.6075,955.273,1550.541L930.9825,1554.0863Q925.0392,1554.8663,915.5149,1554.4623Q890.62494,1553.9026,875.75604,1544.239Q842.1577,1547.1582,834.00867,1542.6798 Z"/>
</g>
<g style="fill:rgb(122,39,15); fill-opacity:1.0; stroke-linejoin: miter">
<path d="M741.46387,1087.891L743.5934,1087.8612Q758.45264,1087.5984,759.8168,1082.3318Q760.49194,1081.9534,760.89954,1076.6987Q760.20386,1063.296,760.4741,1058.1047Q761.2954,1047.9822,762.1851,1045.3754L765.1092,1035.6976Q776.5231,1008.7212,779.11707,1001.12305Q781.3915,994.6732,783.03754,987.7698Q786.5088,973.95544,785.24316,958.3644Q785.64636,954.53906,780.3003,934.6784Q775.14276,918.65765,766.06506,904.1971Q761.5598,897.0368,756.27673,890.6856Q753.56085,886.4534,739.9321,874.8355Q732.37573,867.92914,711.74567,859.8942Q694.7818,853.96906,672.5181,854.10645Q631.787,855.569,596.11255,875.7503Q568.35266,890.98224,552.10614,920.7918L741.46387,1087.891"/>
</g>
<g style="fill:rgb(255,176,147); fill-opacity:1.0; stroke-linejoin: miter">
<path d="M633.6536,1130.9369L628.1858,1122.5833L581.93353,1122.7766Q579.82007,1119.758,578.36273,1115.5084Q576.9056,1111.2585,577.41656,1103.3163Q584.101,1060.3552,583.54,1056.6722Q584.1111,1035.8125,581.8039,1024.1781Q579.3734,997.5112,552.081,953.37585Q557.64996,934.4135,567.68286,916.2845Q583.81537,940.96704,591.6608,945.0636Q597.3805,948.53174,601.1979,948.67224Q621.86206,948.1738,622.61053,949.3563Q626.93274,950.2534,631.14874,954.9546Q640.7375,966.97485,650.1657,1005.13513L664.08777,1002.7384L683.64935,982.5602Q693.4306,978.15906,698.62115,976.62317Q714.50964,970.8296,723.7466,983.0823Q727.74384,986.93164,733.3505,1009.78345Q737.1713,1026.7928,741.6788,1066.2483L750.4897,1107.6147L669.8354,1157.9443L633.6536,1130.9369"/>
</g>
<g style="fill:rgb(255,0,0); fill-opacity:0.6666667; stroke-linejoin: miter">
<path d="M564.8375,951.3617Q561.9048,950.72876,558.8189,950.34033Q555.2392,950.2958,552.83496,950.8657Q552.4501,952.1194,552.081,953.37585Q579.3734,997.5112,581.8043,1024.1783Q584.11127,1035.813,583.54,1056.6722Q584.101,1060.3552,577.41656,1103.3163Q576.9057,1111.2589,578.36304,1115.5084Q579.76587,1119.5997,581.77686,1122.5496Q589.9925,1118.8529,597.4404,1107.5645Q603.0125,1099.2795,607.5965,1087.81Q612.8703,1073.0233,613.3373,1069.4099Q618.0341,1049.4144,616.5307,1027.6128Q615.00226,1005.79675,607.7198,988.17615Q605.3059,982.4519,602.2933,977.6428Q601.0527,974.65027,592.1786,965.48Q580.77057,954.8025,564.8375,951.3617 Z"/>
</g>
<g style="fill:rgb(255,176,147); fill-opacity:0.99607843; stroke-linejoin: miter">
<path d="M613.35944,1003.0032L613.9958,1007.6688Q618.5249,1038.2252,617.3787,1056.8336Q616.6649,1073.5554,606.8262,1101.9945L669.6946,1033.6415L613.35944,1003.0032"/>
</g>
<g style="fill:rgb(255,176,147); fill-opacity:0.99607843; stroke-linejoin: miter">
<path d="M599.8208,1119.5913L602.08594,1114.8127Q620.4232,1076.7699,623.72253,1052.4188Q629.234,1021.13245,621.19666,993.5453Q619.1669,985.06433,608.6273,971.4199Q602.25946,964.0996,595.4207,959.0847Q588.5825,954.069,582.87537,951.21643Q572.7109,945.8229,565.33936,946.635Q553.4372,948.04175,549.6358,955.0376Q548.48114,957.66296,548.8476,961.57056Q548.54517,963.2623,553.6621,983.2168Q554.6186,989.8811,553.939,992.39026Q553.88855,994.80383,550.72015,1002.0952Q551.1381,1001.9509,540.2077,1021.4691Q536.24963,1029.1974,535.8376,1030.5854Q533.2673,1037.6571,533.496,1038.6194Q533.1808,1040.9542,533.748,1042.9392Q535.63043,1050.4536,555.2266,1052.6045Q555.8816,1054.7932,555.75446,1056.8976Q556.129,1056.4697,553.91284,1065.827Q553.6461,1067.5911,553.9727,1068.9799Q554.63904,1072.0085,560.79785,1073.9126Q557.6254,1082.0695,559.4393,1085.0098Q560.65857,1087.0995,567.435,1088.0093Q570.44867,1091.9624,571.5287,1094.2762Q572.9239,1097.5382,572.8023,1099.0787Q573.06915,1099.4259,571.80334,1106.584L571.8077,1110.0607Q572.37195,1113.6693,575.10016,1116.7482Q586.59216,1129.7045,599.8208,1119.5913"/>
</g>
<g style="fill:rgb(255,255,255); fill-opacity:0.99607843; stroke-linejoin: miter">
<path d="M591.8424,992.01624L591.8421,992.01697L577.4053,985.49634Q576.3424,989.37524,576.84247,991.276Q577.1582,993.1837,579.8525,996.92285L591.8424,992.01624"/>
</g>
<g style="fill:rgb(0,0,0); fill-opacity:0.99607843; stroke-linejoin: miter">
<path d="M577.39374,985.5709L577.53156,985.6074Q578.8744,985.93774,579.7502,986.38367Q580.46124,986.7411,581.0464,987.3712Q582.1965,988.69434,582.73206,991.4264Q583.1416,993.4442,583.44196,995.6996L580.10986,997.18396Q578.37317,995.21643,577.66205,994.0802Q576.9864,992.93774,576.9283,992.69604Q576.7325,992.22644,576.6178,991.7427Q576.5058,991.25867,576.47546,990.76074Q576.4203,990.5182,576.5307,989.24146Q576.6758,987.9581,577.39374,985.5709"/>
</g>
<g style="fill:rgb(0,0,0); fill-opacity:0.99607843; stroke-linejoin: miter">
<path d="M556.96313,970.3511Q556.9628,970.3517,556.96313,970.3511"/>
</g>
<g style="fill:rgb(0,0,0); fill-opacity:0.99607843; stroke-linejoin: miter">
<path d="M559.16254,968.42773L559.1624,968.4282L588.38586,976.4391Q575.1552,975.0094,570.7884,974.8247Q566.02045,974.5459,560.98236,975.0471L559.16254,968.42773"/>
</g>
<g style="fill:rgb(255,0,0); fill-opacity:0.13333334; stroke-linejoin: miter">
<path d="M553.87286,1068.456Q569.2644,1069.9773,584.6559,1071.498Q575.49194,1079.6819,566.32855,1087.8649Q561.09033,1087.0924,559.4652,1085.0464Q557.61237,1082.0514,560.79785,1073.9126Q554.4465,1071.8696,553.9727,1068.9802Q553.9125,1068.7244,553.87244,1068.456 Z"/>
</g>
<g style="fill:rgb(0,0,0); fill-opacity:0.5137255; stroke-linejoin: miter">
<path d="M560.8129,1046.1797L559.87756,1045.9183Q557.0682,1045.0999,554.2836,1044.6039Q553.3562,1044.4509,552.4342,1044.3693L551.5141,1044.31Q550.5953,1044.2716,549.68445,1044.3314Q546.88354,1044.5757,545.0612,1045.3367L544.5592,1045.5707L544.1791,1045.8046L543.93726,1046.0298L543.851,1046.2408L543.93616,1046.429Q544.26984,1046.6417,544.3671,1046.6385L544.94464,1046.7489L545.72906,1046.8206L546.70154,1046.8568Q547.7678,1046.8755,549.13544,1046.8376Q552.4785,1046.7578,560.8129,1046.1797"/>
</g>
<g style="fill:rgb(255,176,147); fill-opacity:0.99607843; stroke-linejoin: miter">
<path d="M592.2165,1121.0005L594.8802,1116.4319Q616.38727,1080.0875,621.7461,1056.1052Q629.89923,1025.4012,624.23785,997.2302Q622.93665,988.6073,613.5964,974.1161Q607.87445,966.2803,601.48724,960.70166Q595.1006,955.1227,589.65686,951.79456Q579.98737,945.55505,572.57404,945.73804Q560.59564,946.1272,556.21277,952.7738Q554.83887,955.2916,554.8714,959.21643Q554.4262,960.8762,557.8273,981.19336Q558.2132,987.9154,557.3226,990.35754Q557.0672,992.7578,553.28973,999.75366Q553.7185,999.64526,541.1672,1018.1631Q536.56616,1025.5262,536.0375,1026.8738Q532.8752,1033.7015,533.02094,1034.6796Q532.5082,1036.9792,532.9044,1039.0056Q534.1412,1046.6532,553.4831,1050.4633Q553.9495,1052.6998,553.6437,1054.7856Q554.05383,1054.3912,551.0492,1063.5264Q550.6335,1065.2612,550.84045,1066.6724Q551.24695,1069.7467,557.2214,1072.168Q553.36646,1080.0253,554.9235,1083.1093Q555.9603,1085.2942,562.6351,1086.7778Q565.3015,1090.973,566.1808,1093.3701Q567.2938,1096.7394,567.0414,1098.2643Q567.2776,1098.6326,565.4072,1105.6575L565.11584,1109.1218Q565.3708,1112.7655,567.82745,1116.0647Q578.17566,1129.9515,592.2165,1121.0005"/>
</g>
<g style="fill:rgb(255,255,255); fill-opacity:0.99607843; stroke-linejoin: miter">
<path d="M591.84247,992.01587L591.8422,992.0167L577.4054,985.4962Q576.3425,989.37524,576.84247,991.2759Q577.1579,993.18384,579.85223,996.9225L591.84247,992.01587"/>
</g>
<g style="fill:rgb(0,0,0); fill-opacity:0.99607843; stroke-linejoin: miter">
<path d="M577.394,985.57043L577.5317,985.60706Q578.8745,985.9374,579.7505,986.3838Q580.46124,986.7411,581.0464,987.3712Q582.1965,988.69434,582.73206,991.4264Q583.14185,993.4435,583.44226,995.699L580.11,997.1835Q578.37317,995.21643,577.6622,994.07996Q576.9864,992.93774,576.9283,992.6958Q576.7325,992.22644,576.6179,991.74255Q576.5058,991.25867,576.47546,990.76074Q576.4206,990.5183,576.5307,989.2412Q576.6759,987.9579,577.394,985.57043"/>
</g>
<g style="fill:rgb(0,0,0); fill-opacity:0.99607843; stroke-linejoin: miter">
<path d="M556.96313,970.3511Q556.9628,970.3517,556.96313,970.3511"/>
</g>
<g style="fill:rgb(0,0,0); fill-opacity:0.99607843; stroke-linejoin: miter">
<path d="M559.1627,968.42725L559.1624,968.42773L588.38605,976.4386Q575.1552,975.00964,570.7884,974.8247Q566.02075,974.5449,560.9825,975.04675L559.1627,968.42725"/>
</g>
<g style="fill:rgb(0,0,0); fill-opacity:0.17254902; stroke-linejoin: miter">
<path d="M560.81323,1046.1794L559.87756,1045.9183Q557.0682,1045.1001,554.2834,1044.6045Q553.3562,1044.451,552.4343,1044.3693L551.5144,1044.31Q550.59564,1044.2716,549.6849,1044.3313Q546.884,1044.576,545.0616,1045.3369L544.5594,1045.5709L544.1793,1045.8046L543.9375,1046.0299L543.8511,1046.2408L543.9364,1046.4291Q544.2699,1046.6417,544.3675,1046.6385L544.9448,1046.7489L545.7293,1046.8206L546.7016,1046.8567Q547.76825,1046.8755,549.1357,1046.8376Q552.4785,1046.7578,560.81323,1046.1794"/>
</g>
<g style="fill:rgb(236,164,137); fill-opacity:1.0; stroke-linejoin: miter">
<path d="M550.8609,1064.5024Q550.6933,1065.6693,550.84045,1066.6724Q551.1917,1069.3291,555.701,1071.498Q554.32104,1070.4297,554.01904,1069.206L554.0251,1069.207Q554.3957,1070.455,555.7213,1071.5072Q555.7312,1071.5153,555.7413,1071.5234L555.74786,1071.5244Q556.43994,1071.8513,557.2214,1072.168Q557.16455,1072.2839,557.10876,1072.3989Q556.697,1072.1761,556.33856,1071.9457L556.3326,1071.9468Q556.69104,1072.1853,557.10767,1072.414Q553.3909,1080.0736,554.9235,1083.1093Q555.50183,1084.3279,557.834,1085.3284Q565.8507,1077.6208,573.8673,1069.9133L550.8669,1064.5024 Z"/>
</g>
<g style="fill:rgb(255,255,255); fill-opacity:1.0; stroke-linejoin: miter">
<path d="M531.37646,951.589L561.7615,953.3583L557.8362,1020.8014L527.45105,1019.03394L531.37646,951.589 Z"/>
</g>
<g style="fill:rgb(255,255,255); fill-opacity:1.0; stroke-linejoin: miter">
<path d="M390.20407,606.99756L390.20404,606.99774L390.20404,606.998L390.20404,606.99774L390.20407,606.99756L390.20404,606.99774L390.20404,606.998Q390.20404,606.99774,390.20407,606.99756"/>
</g>
<g style="fill:rgb(0,0,0); fill-opacity:1.0; stroke-linejoin: miter">
<path d="M552.67456,947.87317L583.86926,949.9636L615.0638,952.05396Q612.5653,989.34143,610.0668,1026.6289Q578.8722,1024.5387,547.6774,1022.4486Q550.1761,985.1609,552.67456,947.87317"/>
</g>
<g style="fill:rgb(0,0,0); fill-opacity:1.0; stroke-linejoin: miter">
<path d="M463.20648,598.1268L463.20648,598.127L463.20648,598.1271L463.20648,598.127L463.20648,598.1268L463.20648,598.127L463.20648,598.1271Q463.20648,598.127,463.20648,598.1268"/>
</g>
<g style="fill:rgb(0,0,0); fill-opacity:1.0; stroke-linejoin: miter">
<path d="M593.7677,980.81067L641.44586,985.3247L689.1239,989.83875Q688.2761,998.7942,687.4282,1007.7495Q639.7502,1003.23584,592.07196,998.72205Q592.91986,989.76636,593.7677,980.81067"/>
</g>
<g style="fill:rgb(255,176,147); fill-opacity:1.0; stroke-linejoin: miter">
<path d="M612.5307,871.99774L612.5307,871.99805L612.5307,871.99835L612.5307,871.99774"/>
</g>
<g style="fill:rgb(255,255,255); fill-opacity:0.43529412; stroke-linejoin: miter">
<path d="M-136.60338,998.3075L146.8941,998.308L430.3915,998.3085Q430.3915,1140.5967,430.39154,1282.8848Q146.89413,1282.8854,-136.60336,1282.886Q-136.60338,1140.5968,-136.60338,998.3075"/>
</g>
<g style="fill:rgb(255,255,255); fill-opacity:0.43529412; stroke-linejoin: miter">
<path d="M284.76993,624.7726L568.2672,624.7733L851.76447,624.7742Q851.76447,716.21967,851.7645,807.66534Q568.2673,807.666,284.7699,807.66675Q284.76993,716.21967,284.76993,624.7726"/>
</g>
<g style="fill:rgb(255,255,255); fill-opacity:0.5058824; stroke-linejoin: miter">
<path d="M944.4905,872.00696L1262.4515,872.04706L1262.4062,1247.7144L944.44507,1247.6777L944.4905,872.00696"/>
</g>
<g style="fill:rgb(0,0,0); fill-opacity:1.0; stroke-linejoin: miter">
<path d="M790.1108,1037.9612L665.3593,1037.108L668.5851,842.7185Q716.74805,853.45953,738.2618,864.7715Q746.98987,869.17126,754.4922,874.8205L761.6115,880.8603Q768.38586,887.2514,773.475,895.36053Q778.513,903.52155,781.86554,913.4007L784.8735,923.63104Q787.4983,934.252,788.8975,946.12256Q792.7016,975.4861,790.1108,1037.9612"/>
</g>
<g style="fill:rgb(0,0,0); fill-opacity:1.0; stroke-linejoin: miter">
<path d="M870.3785,734.4246L870.3784,734.42487L870.3784,734.4252L870.3785,734.4246"/>
</g>
<g style="fill:rgb(83,93,102); fill-opacity:1.0; stroke-linejoin: miter">
<path d="M940.56604,503.62476L931.02167,503.62592L931.0116,503.627C933.75525,611.85895,934.67255,716.30273,904.46326,780.9264C872.9028,848.44037,806.9268,872.86676,738.50696,897.95746C736.02856,898.8663,734.75616,901.61224,735.66504,904.09064C736.3748,906.02606,738.20496,907.22614,740.15314,907.22614C740.6996,907.22614,741.2553,907.13165,741.7983,906.93256C809.4931,882.10785,879.6324,856.6186,913.1234,784.97473C944.42114,718.0227,943.3167,611.1045,940.57623,503.62476 Z"/>
</g>
<g style="fill:rgb(83,93,102); fill-opacity:1.0; stroke-linejoin: miter">
<path d="M1011.0401,503.62482L1004.18097,503.62598C988.98505,632.3759,971.9245,755.9848,929.51166,830.029C884.0216,909.4454,809.0579,931.98395,731.9611,954.9834C729.9084,955.5951,728.45703,957.53467,728.552,959.7666C728.6147,961.2396,729.3532,962.60095,730.5535,963.4563C731.3726,964.04016,732.3443,964.3436,733.3278,964.3436C733.7854,964.3436,734.2455,964.27795,734.694,964.14417C811.3676,941.271,890.1736,917.9384,937.8069,834.7805C981.4478,758.5922,998.6513,632.3161,1013.7984,503.62482L1013.78754,503.62598L1011.0401,503.62708L1011.0401,503.62482 Z"/>
</g>
<g style="fill:rgb(116,195,206); fill-opacity:1.0; stroke-linejoin: miter">
<path d="M-83.73659,1047.4097L68.714874,1047.4102L221.16629,1047.4109Q221.16629,1067.608,221.16629,1087.8052Q68.71486,1087.8059,-83.736595,1087.8064Q-83.73659,1067.608,-83.73659,1047.4097"/>
</g>
<g style="fill:rgb(116,195,206); fill-opacity:1.0; stroke-linejoin: miter">
<path d="M-61.85574,1116.1593L3.97184,1116.1599L69.79941,1116.1606Q69.79941,1134.147,69.79941,1152.1333Q3.97184,1152.1338,-61.855747,1152.1349Q-61.855743,1134.147,-61.85574,1116.1593"/>
</g>
<g style="fill:rgb(116,195,206); fill-opacity:1.0; stroke-linejoin: miter">
<path d="M13.598251,1229.8353L205.9053,1229.8362L398.21234,1229.837Q398.21234,1239.8031,398.21237,1249.7692Q205.90533,1249.7697,13.598251,1249.7703Q13.598251,1239.8029,13.598251,1229.8353"/>
</g>
<g style="fill:rgb(116,195,206); fill-opacity:1.0; stroke-linejoin: miter">
<path d="M361.66766,674.8022L465.01758,674.803L568.36743,674.8037Q568.36743,674.803,568.36743,674.80225Q465.01758,674.80286,361.66766,674.8036Q361.66766,674.8028,361.66766,674.8022"/>
</g>
<g style="fill:rgb(116,195,206); fill-opacity:1.0; stroke-linejoin: miter">
<path d="M343.42947,648.0395L453.46667,648.0402L563.50385,648.0409Q563.50385,672.3699,563.50385,696.699Q453.46667,696.69965,343.42947,696.70026Q343.42947,672.3698,343.42947,648.0395"/>
</g>
<g style="fill:rgb(116,195,206); fill-opacity:1.0; stroke-linejoin: miter">
<path d="M348.293,739.27606L581.1343,739.2768L813.97546,739.2775Q813.97546,750.83344,813.97546,762.3892Q581.1343,762.38995,348.293,762.39056Q348.293,750.8333,348.293,739.27606"/>
</g>
<g style="fill:rgb(116,195,206); fill-opacity:1.0; stroke-linejoin: miter">
<path d="M1023.352,921.86847L1068.0306,921.8692L1112.7091,921.8698Q1112.7092,966.54785,1112.7092,1011.22595Q1068.0308,1011.22656,1023.3521,1011.2272Q1023.3521,966.54785,1023.352,921.86847"/>
</g>
<g style="fill:rgb(116,195,206); fill-opacity:1.0; stroke-linejoin: miter">
<path d="M1000.4185,1041.156L1078.4819,1041.1567L1156.5452,1041.1576Q1156.5452,1045.634,1156.5452,1050.1104Q1078.4819,1050.1111,1000.4185,1050.1119Q1000.4185,1045.634,1000.4185,1041.156"/>
</g>
<g style="fill:rgb(116,195,206); fill-opacity:1.0; stroke-linejoin: miter">
<path d="M1005.3907,1094.8826L1106.3264,1094.8832L1207.2617,1094.8839Q1207.2617,1085.9287,1207.2617,1076.9738Q1106.3264,1076.9744,1005.3907,1076.9752Q1005.3907,1085.9288,1005.3907,1094.8826"/>
</g>
<g style="fill:rgb(116,195,206); fill-opacity:1.0; stroke-linejoin: miter">
<path d="M1055.1125,1164.528L1145.3579,1164.5284L1235.6033,1164.5293Q1235.6033,1164.0311,1235.6033,1163.5331Q1145.3579,1163.5334,1055.1125,1163.5343Q1055.1125,1164.0311,1055.1125,1164.528"/>
</g>
<g style="fill:rgb(255,255,255); fill-opacity:0.21176471; stroke-linejoin: miter">
<path d="M531.7659,993.20746L531.7659,993.20795L-229.3009,1148.0553Q-229.8252,920.29407,-230.3495,692.53284L531.7659,993.20746"/>
</g>
</g>
</svg>