<?xml version='1.0' encoding='utf-8'?>
<svg xmlns="http://www.w3.org/2000/svg" viewBox="0 0 2197.17 804.83"> <defs> <style> .cls-1 { fill: #fff; } .cls-2 { fill: #6f6f6e; } .cls-3 { stroke: #1d1d1b; stroke-linejoin: round; stroke-width: .75px; } .cls-3, .cls-4 { fill: #1d1d1b; } .cls-5 { fill: #009ee2; } </style> </defs> <g id="PlayStation"> <g id="Rechte_Plate" data-name="Rechte Plate"> <path class="cls-1" d="M2078.93,94.86l74.83-36.18s11.97-8.09,10.86,5.76c-1.11,13.86-37.34,482.52-38.51,588.27-1.17,105.75-3.11,101.92-4.3,103.25s-8.68,1.16-14,0c-5.32-1.16-24.11-5.35-24.11-5.35l-4.78-655.76Z"/> <path class="cls-4" d="M2074.68,92.22c26.59-11.05,52.06-23.57,77.74-36.3,0,0-.38,.22-.38,.22,1.07-.72,1.94-1.15,3.07-1.67,3.09-1.54,7.61-2.04,10.36,.87,3.66,4.01,2.06,10.41,1.9,15.23,0,0-1.62,23.37-1.62,23.37-6.97,103.76-13.46,223.79-19.97,327.35-4.23,70.12-9.03,140.17-12.13,210.26-1.07,30.8-1.31,62.92-2.73,93.66-.47,8.98-.74,17.85-1.88,26.85,0,0-.25,1.64-.25,1.64-.37,1.9-.78,3.8-2.06,5.41-.17,.2-.35,.4-.53,.59-.17,.18-.46,.44-.31,.3,.05-.04,.09-.09,.13-.14,.16-.17-.16,.16-.42,.39-.26,.23-.53,.45-.82,.65-.33,.23-.51,.32-.66,.4-.35,.17-.7,.33-1.06,.47l-.75,.23c-.25,.07-.51,.14-.68,.17-4.45,.78-8.79,.3-13.09-.43-.54-.1-1.1-.21-1.65-.34l-1.46-.34s-22.79-5.53-22.8-5.53c0,0-3.88-.86-3.88-.86-1.63-220.8-2.94-441.76-4.06-662.42h0Zm8.49,5.28c2.08,217.84,3.96,435.38,5.53,653.08l-3.91-4.84c1.67,.4,24.44,4.91,25.59,5.11,2.85,.37,6.04,.68,8.76,.19,.06,0,.05-.01,.02-.01-.15,.05-.31,.11-.44,.19,0,0-.35,.21-.35,.21-.19,.12-.37,.26-.53,.42-.17,.16-.38,.42-.14,.15l.4-.39c.24-.22,.04-.05-.06,.04-.24,.22-.49,.58-.64,.82-.09,.15-.18,.43-.16,.33-.01-.02-.02-.03,0-.04,1.21-9.18,1.09-18.65,1.39-27.97,.73-46.52,.2-94.24,2.92-140.66,7.74-161.11,23.63-329.84,37.44-490.72,0,0,1.97-23.35,1.97-23.35l.49-5.84c.06-.85,.11-1.69,.04-2.42-.05-.74-.18-1.42-.35-1.79-.2-.39-.24-.41-.35-.46-.1-.07-.55-.14-1.16-.04-1.41,.28-3.15,1.03-4.38,1.87-24.25,11.46-48.81,22.99-72.08,36.13h0Z"/> </g> <g id="Mitte"> <path class="cls-4" d="M2034.31,86.59s58.71,5.23,71.23,21.86c10.52,13.97,24.83,40.79,19.51,147.65-5.32,106.86-15.52,419.89-15.96,454.47-.44,34.58,1.05,38.91-4.1,39.41s-33.09,1.16-39.07,0-48.38-654.61-48.38-654.61l16.78-8.78Z"/> <path class="cls-5" d="M2033.82,84.14c1.17-.08,.85,0,1.42,.02,0,0,.7,.06,.7,.06l1.4,.13c17.67,1.82,35.41,4.46,52.22,10.51,7.19,2.68,15.28,6.54,19.68,13.13,10.33,13.97,14.27,31.29,16.92,48.08,3.89,27.67,3.84,55.77,2.94,83.59-7.13,166.06-15.37,337.96-18.27,504.11-.47,9.86-5.2,8.17-14.14,8.68-7.42,.21-14.82,.32-22.28,.17-2.88-.13-5.69-.1-8.6-.57-.56-.25,.7,.47-1.35-.57-.62-.64-.59-.84-.71-1.06-1.3-4.45-1.52-9.08-2.13-13.54-9.4-95.65-15.2-191.6-22.31-287.43-6.18-89.01-18.41-266.52-24.4-355.53,6.28-3.29,12.59-6.56,18.9-9.77h0Zm.98,4.9c-5.36,2.88-10.72,5.72-16.11,8.54l1.34-2.38c12.98,197.71,26.66,422.69,43.49,619.19,1.24,11.47,1.83,23.2,4.08,34.46-.03,0,.09,0-.37-.47-1.86-.89-.34-.22-.68-.41,9.92,1,20.04,.5,30.03,.32,2.72-.07,5.48-.19,8.17-.39,.5-.05,.84-.09,1.09-.34,.16-.17,.43-.82,.56-1.59,.43-2.6,.42-5.23,.48-7.92,.05-8.66,0-25.1,.24-33.27,4.11-150.29,8.33-304.25,14.79-454.32,.43-10.6,.81-22.54,.83-33.11,.01-19.98-.61-40.51-3.35-60.3-2.02-13.22-4.91-26.75-11.27-38.54-1.61-2.9-3.6-6.18-5.69-8.72-3.97-4.46-9.55-6.87-15.08-9.12-16.59-6.19-34.37-9.17-51.91-11.45,0,0-.68-.08-.68-.08l-.34-.04c-.26-.04-.16,.03,.38-.07h0Z"/> </g> <g id="Linke_Plate" data-name="Linke Plate"> <path class="cls-1" d="M1866.34,137.49s76.71-68.5,118.38-92.22c41.68-23.72,43.01-25.05,44.78-9.98s13.97,151.64,20.17,242.53c6.21,90.89,24.9,394.87,22.72,452.7-.52,13.82,1.11,23.6-2.1,28.75-7.06,11.31-23.4,4.99-37.81,3.85-20.95-1.66-199.95-26.93-204.51-27.6s-10.64-1.33-5.65-49.89c5.53-53.82,24.72-331.54,26.94-422.88s.26-110.58,17.07-125.26Z"/> <path class="cls-4" d="M1864.03,134.88c30.76-27.46,62.07-58.38,95.63-82.43,15.11-10.98,32.26-20.21,48.69-29.18,4.68-2.33,9.76-5.13,15.3-5.53,7.03-.34,11.61,4.73,12.7,11.27,20.45,200.32,28.93,405.54,38.58,606.72,1.21,32.43,2.89,65.39,2.14,97.9-.25,7.05,.53,14.24-.47,21.57-1.31,9.79-10.18,15.58-19.76,15.42-8.88,.09-16.29-2.14-24.71-2.81-29.06-3.15-57.81-7.36-86.72-11.29-31.39-4.62-87.03-12.07-118.36-16.78-1.23-.21-2.71-.53-3.86-1.19-1.78-.98-3.15-2.53-4.11-4.28-1.8-3.69-2.35-7.85-2.65-11.87-.62-10.79,.28-21.53,1.23-32.04,1.89-18.36,3.4-37.2,4.9-55.53,10.3-138.99,21.4-278.19,24.65-417.55,.68-18.73,.4-37.55,3.37-56.16,.86-4.73,2.07-9.55,4.24-14.16,2.16-4.61,5.5-8.78,9.2-12.07h0Zm4.61,5.23c-6.9,5.57-10.31,13.65-11.83,22.17-1.68,8.83-2.26,18.08-2.71,27.31-2.37,148.84-12.8,297.43-23.42,445.87-1.42,18.33-2.87,37.32-4.65,55.67-.87,10.31-1.7,20.52-1.07,30.64,.19,2.55,.52,5.03,1.27,7.44,.23,.44,.35,.93,.66,1.33,.06,.11,.12,.24,.18,.24,.05,.03,.08,.09,.11,.14,.04,0,.07,0,.08,.04,.37,.21,1.44,.28,1.95,.38,55.98,7.59,116.98,16.24,172.73,23.4,11.58,1.51,23.1,2.95,34.61,4.08,8.12,.64,23.57,5.64,29-1.04,2.29-2.86,1.9-6.57,2.07-10.31,.01-4.47-.14-9.23-.05-14,.07-1.79,.1-5.24,.13-7.01,.3-38.77-1.98-79.28-3.72-118.16-5.56-110.95-13.1-223.31-21.31-334.01-6.65-80.75-13-163.19-21.58-243.05,.56,1.05,2.31,1.98,3.29,1.88-1.03,.25-2.02,.53-3.23,1.07-9.25,4.18-20.78,11.08-29.84,16.16-1.54,.83-4.41,2.56-5.9,3.46-5.84,3.48-11.49,7.17-17.14,11.02-34.14,23.55-67.93,48.08-99.62,75.28h0Z"/> </g> <path id="Base" class="cls-4" d="M1839.95,740.28s.22-9.53,13.52-7.98,102.64,18.33,102.64,18.33c0,0,6.37,1.07,6.21,2.01s7.65,1.44,7.65,1.44c0,0,72.46,8.21,78.05,8.81s22.36-.12,24.26-15.4l11.41,.13s10.14,20.32-12.64,23.64-103.86,12.14-222.47,0c0,0-12.19-.28-8.65-30.98Z"/> </g> <g id="Controller"> <g> <path class="cls-4" d="M1847.79,744.76l-34.83-98.2-77.61-9.89-78.19-2.6-50.03,91.4-4.55,31.8,13.07,3.38s4.66,2.24,10.65-10.12c6-12.36,23.31-55.68,43.7-54.04,20.39,1.63,60.16,4.82,60.16,4.82,0,0,39.78,3.19,60.16,4.82,20.39,1.63,30.58,47.15,34.53,60.32,3.95,13.16,8.89,11.89,8.89,11.89l13.45-1.26,.59-32.31Z"/> <g> <path class="cls-1" d="M1874.71,712.7c2.47-39.17-13.51-89.49-16.84-102.1-3.33-12.61-10.57-13.86-10.57-13.86-27.43-11.54-107.18-19.6-107.18-19.6,0,0-80.02-4.75-108.94,2.28,0,0-7.35,.08-12.64,12s-29.09,59.05-32.88,98.11c-3.8,39.06,.47,60.75,17.11,65.42,4.82,1.46,7.46-4.43,8.74-8.82,1.35-4.66,3.14-9.17,5.19-13.56,10.64-22.77,39.02-80.72,55.67-88.47,20.79-9.68,62.73-4.31,62.73-4.31,0,0,42.26,1.39,61.24,14.25,15.2,10.3,33.99,72.03,40.87,96.21,1.33,4.66,2.37,9.41,2.96,14.22,.56,4.54,2.24,10.77,7.22,10.1,17.17-1.96,24.84-22.7,27.31-61.86Z"/> <path class="cls-4" d="M1872.15,712.54c1.48-30.25-5.38-60.34-13.18-89.44-.67-2.38-2.41-8.73-3.05-11.06-1.32-5.18-3.74-11.21-8.98-13.13-8.38-3.24-17.51-5.66-26.3-7.55-26.55-5.66-53.72-9.2-80.68-12.06-27.07-1.3-54.46-2.01-81.55-.51-9.23,.49-18.44,1.47-27.19,3.38-1.23,.26-2.82,.92-3.91,1.86-4.41,3.22-6.44,9.57-8.74,14.36-16.84,36.57-31.4,75.35-31.52,116.03,.05,13.68,1.05,34.7,17.06,38.41,1.29,.03,2.11-.93,2.89-2.05,.91-1.4,1.63-3.16,2.17-4.97,1.14-3.98,2.62-7.97,4.29-11.77,10.44-22.02,37.34-80.56,56.8-92.04,17.88-8.59,46.6-7.13,64.94-5.19,17.21,.97,34.33,3.05,50.66,8.84,2.48,.81,5.72,2.42,8.09,3.54,0,0,3.88,2.32,3.88,2.32,3.81,2.61,6.69,6.64,9.06,10.39,4.57,7.33,8.12,15.22,11.41,23.13,9.38,23.74,17.4,47.99,23.43,72.77,.9,3.85,.82,8.19,2.34,11.83,.77,1.57,1.44,2.57,3,2.42,0,0,.93-.13,.93-.13,2.48-.34,4.72-1.34,6.94-2.46,14.61-8.16,16.16-41.57,17.21-56.93h0Zm5.13,.32c-1.61,17.87-3.69,43.65-16.41,57.26-2.07,2.28-4.53,4.46-7.5,5.53-2.31,.87-4.79,1.51-7.26,1.45-6.93-.83-8.03-8.77-8.76-14.25-.62-4.07-1.56-8.05-2.7-12.02-6.29-21.02-24.27-82.33-40.09-94.45,0,0-3.37-2.01-3.37-2.01l-3.61-1.72c-16.53-6.77-34.84-8.86-52.57-9.89-18.35-1.84-45.24-3.46-62.04,4.26-18.21,11.31-45.18,67.66-55.21,88.89-1.62,3.67-2.99,7.36-4.12,11.24-1.03,3.25-2.42,6.84-5.45,9.05-3.3,2.52-7.82,.69-11.07-1.1-5.95-3.25-9.81-9.57-11.81-15.71-4.91-16.1-3.83-33.22-2.79-49.73,2.99-33.16,16.89-63.99,30.73-93.75,2.81-5.74,5.22-12.46,10.69-16.37,2.13-1.53,4.49-2.75,7.22-2.89,0,0-.62,.08-.62,.08,2.31-.42,4.63-.93,6.94-1.27,3.88-.52,9.79-1.17,13.79-1.42,29.72-1.73,59.31-.64,89.04,.94,27.26,3.05,54.37,6.62,81.24,12.21,8.88,1.91,18.16,4.19,26.63,7.52,5.78,1.43,10.47,8.88,12.13,16.16,.65,2.28,2.43,8.63,3.11,11,8.09,29.6,15.41,60.04,13.87,90.99h0Z"/> </g> <path class="cls-3" d="M1631.19,579.42s-1.88-5.74,8.52-8.49c10.4-2.75,25.2-2.23,28.5-.8s2.56,6.54,2.56,6.54l-39.59,2.75Z"/> <path class="cls-3" d="M1846.91,596.71s2.77-5.37-7.06-9.74c-9.82-4.37-24.52-6.22-28.01-5.33s-3.57,6.05-3.57,6.05l38.64,9.02Z"/> <circle class="cls-2" cx="1687.03" cy="669.05" r="17.07"/> <circle class="cls-2" cx="1780.94" cy="676.57" r="17.07"/> <g> <g> <circle class="cls-1" cx="1827.25" cy="618.02" r="8.1"/> <path class="cls-4" d="M1836.82,618.79c-1,8.27-11.3,12.01-16.88,5.46-3.42-3.85-2.9-10.28,1.08-13.53,6.44-5.52,16.5-.38,15.79,8.08h0Zm-2.99-.24c.55-5.76-6.51-9.37-10.86-5.55-4.46,3.68-2.02,11.23,3.75,11.6,3.56,.45,7.11-2.36,7.11-6.05h0Z"/> </g> <g> <circle class="cls-1" cx="1824.57" cy="651.51" r="8.1"/> <path class="cls-4" d="M1834.58,652.31c-.21,5.38-5.52,9.7-10.8,9.05-8.49-.79-11.93-11.67-5.45-17.17,6.54-5.64,16.82-.55,16.25,8.13h0Zm-3.88-.31c.68-5.54-6.16-9.2-10.4-5.5-2.75,2.19-3.07,6.66-.66,9.21,3.65,4.15,10.6,1.73,11.06-3.7h0Z"/> </g> <g> <circle class="cls-1" cx="1809.16" cy="633.42" r="8.1"/> <path class="cls-4" d="M1809.9,624.26c8.05,.73,11.53,10.97,5.38,16.34-3.74,3.47-10.19,3.01-13.42-.97-5.44-6.31-.2-16.26,8.04-15.38h0Zm-.17,2.17c-5.94-.42-9.5,6.85-5.59,11.27,3.74,4.51,11.38,2.12,11.93-3.73,.48-3.71-2.55-7.44-6.34-7.54h0Z"/> </g> <g> <circle class="cls-1" cx="1842.65" cy="636.11" r="8.1"/> <path class="cls-4" d="M1843.4,626.77c8.38,.52,11.93,11.23,5.47,16.64-3.84,3.39-10.24,2.83-13.42-1.17-5.33-6.29-.21-16.09,7.95-15.47h0Zm-.2,2.53c-6.04-.65-9.69,6.69-5.68,11.18,2.32,2.73,6.76,3.04,9.42,.66,4.48-3.74,2.11-11.34-3.74-11.84h0Z"/> </g> </g> <g> <g> <path class="cls-1" d="M1649.38,595.63s-8.17-.68-8.17,4.18c0,5.5-.04,7.84-.04,7.84,0,0-.03,1.39,1.86,3.82,1.99,2.55,3.48,4.45,4.72,4.55s3.02-1.53,5.39-3.74c2.26-2.1,2.45-3.47,2.45-3.47,0,0,.33-2.31,1.2-7.74,.77-4.8-7.4-5.43-7.4-5.43Z"/> <path class="cls-4" d="M1649.29,596.73c-2.24-.12-5.46-.05-6.71,2.01-.22,.57-.22,1.04-.2,1.71,.03,1.79,.07,5.4,.09,7.19,.47,1.97,2.27,3.7,3.55,5.28,.42,.52,1.43,1.54,1.84,1.65,.42-.11,1.56-.9,2.05-1.37,1.45-1.37,3.49-2.79,4.23-4.64,.3-1.76,.92-5.31,1.23-7.07,.12-.65,.2-1.07,.08-1.65-.89-2.15-4-2.75-6.17-3.1h0Zm.18-2.19c3.28,.34,7.73,1.3,8.57,5.13,.17,.71,.04,1.59-.04,2.23-.25,1.82-.75,5.49-1.01,7.31-.66,2.24-2.19,3.53-3.74,5.01-1.65,1.39-3.21,3.28-5.62,3.27-1.75-.22-2.77-1.55-3.8-2.71-1.64-2.19-3.59-4.07-3.98-6.97,.04-1.84,.12-5.53,.17-7.37,.02-.64,.03-1.5,.3-2.16,1.39-3.57,5.92-3.77,9.14-3.74h0Z"/> </g> <g> <path class="cls-1" d="M1645.45,644.69s-8.18-.63-7.4-5.43c.87-5.43,1.2-7.74,1.2-7.74,0,0,.19-1.37,2.45-3.47,2.37-2.2,4.14-3.84,5.39-3.74s2.73,1.99,4.72,4.55c1.9,2.43,1.86,3.82,1.86,3.82,0,0-.04,2.33-.04,7.84,0,4.86-8.18,4.18-8.18,4.18Z"/> <path class="cls-4" d="M1645.36,645.71c-3.25-.32-7.68-1.26-8.53-5.05-.17-.71-.05-1.58,.03-2.22,.24-1.82,.73-5.49,.98-7.31,.64-2.24,2.19-3.53,3.73-5.01,1.65-1.4,3.21-3.29,5.62-3.28,1.75,.22,2.77,1.55,3.8,2.7,1.64,2.19,3.58,4.08,3.97,6.98-.09,2.33-.1,6.02-.25,8.36-.44,4.45-5.85,4.95-9.35,4.83h0Zm.16-2.03c2.14,.15,6.04-.06,6.84-2.36,.15-.46,.11-.88,.11-1.44-.03-1.79-.08-5.4-.12-7.19-.48-1.97-2.29-3.69-3.56-5.27-.41-.53-1.43-1.54-1.84-1.65-.42,.11-1.56,.9-2.05,1.38-1.47,1.35-3.5,2.79-4.25,4.63-.31,1.76-.95,5.3-1.26,7.07-.12,.65-.2,1.09-.09,1.67,.89,2.19,4.02,2.8,6.21,3.16h0Z"/> </g> <g> <path class="cls-1" d="M1622.88,618.2s-.68,8.17,4.18,8.17c5.5,0,7.84,.04,7.84,.04,0,0,1.39,.03,3.82-1.86,2.55-1.99,4.45-3.48,4.55-4.72s-1.53-3.02-3.74-5.39c-2.1-2.26-3.47-2.45-3.47-2.45,0,0-2.31-.33-7.74-1.2-4.8-.77-5.43,7.4-5.43,7.4Z"/> <path class="cls-4" d="M1624.35,618.32c-.1,2.41-.05,5.26,1.72,6.51,.53,.24,.97,.26,1.62,.26,1.79,.04,5.4,.12,7.19,.16,2.05-.38,3.83-2.2,5.47-3.45,.6-.5,1.64-1.46,1.77-2.06-.06-.61-.93-1.7-1.45-2.29-1.41-1.49-2.91-3.52-4.84-4.21-1.77-.24-5.35-.74-7.12-.99-.64-.1-1.05-.15-1.6,0-1.98,.97-2.42,4-2.76,6.07h0Zm-2.94-.24c.34-3.38,1.54-7.89,5.48-8.65,1.41-.27,4.4,.55,5.83,.72,0,0,3.68,.64,3.68,.64,2.76,.9,4.21,3.17,6.05,5.17,.93,1.25,1.92,2.07,1.95,3.97-.34,1.87-1.46,2.5-2.58,3.59-2.11,1.66-3.95,3.62-6.78,4.07-1.83,.01-5.53,.06-7.36,.08-.65,0-1.53,.02-2.22-.25-3.74-1.38-4.13-5.96-4.06-9.33h0Z"/> </g> <g> <path class="cls-1" d="M1671.94,622.13s-.63,8.18-5.43,7.4c-5.43-.87-7.74-1.2-7.74-1.2,0,0-1.37-.19-3.47-2.45-2.2-2.37-3.84-4.14-3.74-5.39s1.99-2.73,4.55-4.72c2.43-1.9,3.82-1.86,3.82-1.86,0,0,2.33,.04,7.84,.04,4.86,0,4.18,8.18,4.18,8.18Z"/> <path class="cls-4" d="M1672.96,622.21c-.32,3.25-1.26,7.69-5.05,8.53-.71,.17-1.58,.05-2.22-.03-1.82-.24-5.49-.73-7.31-.98-2.24-.65-3.53-2.19-5.01-3.74-1.39-1.65-3.28-3.21-3.28-5.62,.22-1.75,1.55-2.76,2.7-3.8,2.19-1.63,4.08-3.58,6.97-3.96,2.33,.1,6.02,.12,8.35,.26,4.44,.43,4.96,5.84,4.84,9.33h0Zm-2.03-.16c.15-2.15-.04-6.05-2.35-6.86-.46-.16-.88-.11-1.44-.12-1.79,.03-5.4,.09-7.19,.13-1.97,.48-3.7,2.28-5.27,3.57-.53,.42-1.54,1.43-1.65,1.84,.11,.42,.9,1.56,1.38,2.05,1.36,1.46,2.79,3.5,4.63,4.24,1.76,.31,5.3,.95,7.06,1.26,.65,.12,1.09,.2,1.67,.09,2.19-.89,2.8-4.02,3.16-6.21h0Z"/> </g> </g> <path class="cls-5" d="M1688.03,578.75c-4.06,6.23-4.66,14.15-3.99,21.41,0,0,.78,7.69,.78,7.69,1.02,8.21,1.32,16.67,4.11,24.47,.45,1.1,1.01,2.19,1.8,3.08,.41,.58,.96,.83,1.44,1.26,.65,.54,.74,1.5,.21,2.15-1.91,1.94-3.46-1.55-4.25-2.9-3.7-8.81-4.2-18.5-5.39-27.83-1-7.56-2.2-16-.2-23.49,.7-2.69,1.56-5.26,3.1-7.64,.47-.69,1.4-.86,2.09-.4,.73,.49,.87,1.52,.32,2.2h0Z"/> <path class="cls-5" d="M1793.96,585.64c2.79,7.63,2.12,16.07,.09,23.78,0,0-2.05,7.45-2.05,7.45-2.57,8.71-4.23,18.01-9.07,25.89-.81,1.24-1.84,2.32-3.08,3.19-.65,.52-1.6,.41-2.11-.24-.62-.76-.31-1.88,.54-2.31,3.63-2.65,5.4-8.14,7-12.41,1.63-4.83,3.05-9.78,4.42-14.74,1.18-4.3,3.15-10.43,3.55-14.84,.51-4.81,.28-10.03-1.95-14.38-1.07-1.83,1.74-3.34,2.66-1.39h0Z"/> </g> <path class="cls-4" d="M1872.15,711.11c1.48-30.25-5.38-60.34-13.18-89.44-.67-2.38-2.41-8.73-3.05-11.06-1.32-5.18-3.74-11.21-8.98-13.13-8.38-3.24-17.51-5.66-26.3-7.55-26.55-5.66-53.72-9.2-80.68-12.06-27.07-1.3-54.46-2.01-81.55-.51-9.23,.49-18.44,1.47-27.19,3.38-1.23,.26-2.82,.92-3.91,1.86-4.41,3.22-6.44,9.57-8.74,14.36-16.84,36.57-31.4,75.35-31.52,116.03,.05,13.68,1.05,34.7,17.06,38.41,1.29,.03,2.11-.93,2.89-2.05,.91-1.4,1.63-3.16,2.17-4.97,1.14-3.98,2.62-7.97,4.29-11.77,10.44-22.02,37.34-80.56,56.8-92.04,17.88-8.59,46.6-7.13,64.94-5.19,17.21,.97,34.33,3.05,50.66,8.84,2.48,.81,5.72,2.42,8.09,3.54,0,0,3.88,2.32,3.88,2.32,3.81,2.61,6.69,6.64,9.06,10.39,4.57,7.33,8.12,15.22,11.41,23.13,9.38,23.74,17.4,47.99,23.43,72.77,.9,3.85,.82,8.19,2.34,11.83,.77,1.57,1.44,2.57,3,2.42,0,0,.93-.13,.93-.13,2.48-.34,4.71-1.34,6.94-2.46,14.61-8.16,16.16-41.57,17.21-56.93h0Zm5.13,.32c-1.61,17.87-3.69,43.65-16.41,57.26-2.07,2.28-4.53,4.46-7.5,5.53-2.31,.87-4.79,1.51-7.26,1.45-6.93-.83-8.03-8.77-8.76-14.25-.62-4.07-1.56-8.05-2.7-12.02-6.29-21.01-24.27-82.33-40.09-94.45,0,0-3.37-2.01-3.37-2.01l-3.61-1.72c-16.53-6.77-34.84-8.86-52.57-9.89-18.35-1.84-45.24-3.46-62.04,4.26-18.21,11.31-45.18,67.66-55.21,88.89-1.62,3.67-2.99,7.36-4.12,11.24-1.03,3.25-2.42,6.84-5.45,9.05-3.3,2.52-7.82,.69-11.07-1.1-5.95-3.25-9.81-9.57-11.81-15.71-4.91-16.1-3.83-33.22-2.79-49.73,2.99-33.16,16.89-63.99,30.73-93.75,2.81-5.74,5.22-12.46,10.69-16.37,2.13-1.53,4.49-2.75,7.22-2.89,0,0-.62,.08-.62,.08,2.31-.42,4.63-.93,6.94-1.27,3.88-.52,9.79-1.17,13.79-1.42,29.72-1.73,59.31-.64,89.04,.94,27.26,3.05,54.37,6.62,81.24,12.21,8.88,1.91,18.16,4.19,26.63,7.52,5.78,1.43,10.47,8.88,12.13,16.16,.65,2.28,2.43,8.63,3.11,11,8.09,29.6,15.41,60.04,13.87,90.99h0Z"/> </g> </svg>